<svg xmlns="http://www.w3.org/2000/svg" width="48" height="48" viewBox="0 0 48 48" fill="none">
  <rect width="48" height="48" rx="12" fill="#1a1508"/>
  <rect width="48" height="48" rx="12" fill="url(#grad)" opacity="0.6"/>
  <path d="M24 8L28 18H38L30 24L33 34L24 28L15 34L18 24L10 18H20L24 8Z" fill="#C9A84C" opacity="0.15"/>
  <path d="M24 12L27.1 20.2H35.8L28.8 25.1L31.6 33.3L24 28.4L16.4 33.3L19.2 25.1L12.2 20.2H20.9L24 12Z" fill="url(#star)" stroke="#C9A84C" stroke-width="0.5" stroke-linejoin="round"/>
  <circle cx="24" cy="24" r="4" fill="#C9A84C" opacity="0.3"/>
  <circle cx="24" cy="24" r="2" fill="#C9A84C"/>
  <defs>
    <linearGradient id="grad" x1="0" y1="0" x2="48" y2="48" gradientUnits="userSpaceOnUse">
      <stop offset="0%" stop-color="#C9A84C" stop-opacity="0.2"/>
      <stop offset="100%" stop-color="#8B6914" stop-opacity="0.05"/>
    </linearGradient>
    <linearGradient id="star" x1="12" y1="12" x2="36" y2="36" gradientUnits="userSpaceOnUse">
      <stop offset="0%" stop-color="#E8C96A"/>
      <stop offset="100%" stop-color="#A07828"/>
    </linearGradient>
  </defs>
</svg>
